<?xml version="1.0" encoding="UTF-8"?>
<svg id="Layer_1" data-name="Layer 1" xmlns="http://www.w3.org/2000/svg" xmlns:xlink="http://www.w3.org/1999/xlink" viewBox="0 0 1584.55 187.86">
  <defs>
    <style>
      .cls-1 {
        fill: #fffffe;
      }

      .cls-1, .cls-2, .cls-3, .cls-4 {
        fill-rule: evenodd;
      }

      .cls-5 {
        mask: url(#mask-17);
      }

      .cls-2, .cls-6 {
        fill: #263179;
      }

      .cls-3 {
        fill: #fff;
      }

      .cls-7 {
        mask: url(#mask-6-2);
      }

      .cls-8, .cls-9 {
        isolation: isolate;
      }

      .cls-10 {
        mask: url(#mask-13);
      }

      .cls-11 {
        mask: url(#mask-3);
      }

      .cls-4, .cls-9 {
        fill: #00629b;
      }

      .cls-12 {
        mask: url(#mask-10-2);
      }

      .cls-13 {
        mask: url(#mask-9);
      }

      .cls-14 {
        mask: url(#mask-16-2);
      }

      .cls-15 {
        mask: url(#mask-5);
      }

      .cls-16 {
        mask: url(#mask-12-2);
      }

      .cls-9 {
        font-family: ArialMT, Arial;
        font-size: 45px;
      }

      .cls-17 {
        mask: url(#mask-8-2);
      }

      .cls-18 {
        mask: url(#mask-15);
      }

      .cls-19 {
        mask: url(#mask-2-2);
      }

      .cls-20 {
        mask: url(#mask-14-2);
      }

      .cls-21 {
        mask: url(#mask-18-2);
      }

      .cls-22 {
        fill: none;
        stroke: #263179;
        stroke-linecap: square;
        stroke-width: 2px;
      }

      .cls-23 {
        letter-spacing: -.02em;
      }

      .cls-24 {
        mask: url(#mask-4-2);
      }

      .cls-25 {
        mask: url(#mask-1);
      }

      .cls-26 {
        mask: url(#mask);
      }

      .cls-27 {
        mask: url(#mask-7);
      }

      .cls-28 {
        mask: url(#mask-11);
      }
    </style>
    <mask id="mask" x="209.91" y="24.44" width="40.43" height="140.74" maskUnits="userSpaceOnUse">
      <g id="mask-2">
        <polygon id="path-1" class="cls-3" points="210.91 25.44 249.34 25.44 249.34 164.19 210.91 164.19 210.91 25.44"/>
      </g>
    </mask>
    <mask id="mask-1" x="268.51" y="24.44" width="107.69" height="140.74" maskUnits="userSpaceOnUse">
      <g id="mask-4">
        <polygon id="path-3" class="cls-3" points="375.2 25.44 375.2 52.34 307.94 52.34 307.94 80.97 369.81 80.97 369.81 107.87 307.94 107.87 307.94 137.27 375.2 137.27 375.2 164.18 269.51 164.18 269.51 25.44 375.2 25.44"/>
      </g>
    </mask>
    <mask id="mask-2-2" data-name="mask-2" x="395.73" y="24.44" width="107.66" height="140.74" maskUnits="userSpaceOnUse">
      <g id="mask-6">
        <polygon id="path-5" class="cls-3" points="502.39 25.44 502.39 52.34 435.15 52.34 435.15 80.97 497 80.97 497 107.87 435.15 107.87 435.15 137.27 502.39 137.27 502.39 164.18 396.73 164.18 396.73 25.44 502.39 25.44"/>
      </g>
    </mask>
    <mask id="mask-3" x="522.49" y="24.56" width="108" height="141" maskUnits="userSpaceOnUse">
      <g id="mask-8">
        <polygon id="path-7" class="cls-3" points="629.49 25.56 629.49 52.51 562.06 52.51 562.06 81.19 624.1 81.19 624.1 108.15 562.06 108.15 562.06 137.6 629.49 137.6 629.49 164.56 523.49 164.56 523.49 25.56 629.49 25.56"/>
      </g>
    </mask>
    <mask id="mask-4-2" data-name="mask-4" x="0" y="0" width="188.49" height="185.98" maskUnits="userSpaceOnUse">
      <g id="mask-10">
        <path id="path-9" class="cls-3" d="m90.19,3.34c1.67-1.27,3.89-2.34,5.94-1.45.94.25,2.01,1.11,2.86,1.63l6.95,9.82c5.72,7.23,11.74,14.8,17.93,21.65l15.28,15.91c13.83,13.7,28.5,25.78,44.25,36.46l.5.08c2.01,1.28,3.37,3.58,3.59,5.91-.05,3.12-2.29,4.7-4.71,6.09l-.46.26-.69.38c-1.14.64-2.26,1.28-3.14,2.07-30.61,22.12-58,49.51-79.61,80.02l-1.74,1.74c-1.75,1.06-4.01.63-5.85,0-1.47-.48-2.12-1.67-2.78-2.88l-.23-.43c-.31-.57-.65-1.12-1.09-1.58-4.78-7.4-10.88-14.34-16.08-21.23-3.08-3.1-5.64-6.39-8.79-9.69-17.76-19.41-37.73-36.42-58.6-50.76-1.48-1.48-2.72-3.44-2.04-5.82.64-2.65,3.7-4.21,5.76-5.82,26.07-17.84,49.97-41.11,70.15-66.03l12.58-16.34Zm16.78,27.57c-5.17-4.38-12.89-8.34-19.03-3.57-5.89,4.22-11.48,8.51-17.11,13.35-.47.3-1.03.94-1.33,1.24-13.1,11.65-26.07,24.41-36.66,37.86-.11.14-.21.28-.32.41l-.96,1.24c-2.56,3.31-5.02,6.65-6.01,10.59-.04,2.46.34,4.76,1.67,6.64,8.96,13.31,20.83,26.03,32.65,36.96,1.24,1.11,2.48,2.23,3.72,3.35l1.48,1.35c8.4,7.66,16.8,15.36,26.46,20.4,3.83,1.79,8.15-.29,11.35-2.55,15.82-11.1,29.96-25.01,43.35-39.38,1-1.23,2.03-2.44,3.06-3.65l1.03-1.2c4.99-5.81,9.93-11.54,12.67-18.35.95-3.44-.55-6.37-2.25-8.96-10.45-14.89-23.18-28.97-36.88-41.64l-.9-.51c-4.95-4.78-10.58-9.45-16-13.57Zm-3.79,2.45l.46.34c1.15.86,2.26,1.74,3.33,2.49,18.81,15.09,36.57,32.37,50.09,51.88,1.71,2.52,2.48,6.43.95,9.28-3.51,5.83-8.24,11.15-12.72,16.56v.3c-11.18,11.87-23,24.07-35.76,34.12-1.26.77-2.5,1.71-3.74,2.7l-.44.35c-.15.12-.29.23-.44.35l-.66.52c-.15.12-.29.23-.44.35l-.44.34c-4.13,3.19-8.46,5.72-13.81,2.31-18.27-13.31-35.75-29.86-50.58-47.6-2.51-3.9-6.44-7.1-8.18-11.52-1.73-4.24.46-7.63,2.97-10.84l.37-.47.37-.47c.81-1.01,1.61-2.01,2.3-3.02,15.11-18.58,33.88-36.8,53.38-50.23,4.71-3.2,9.06-.65,12.99,2.27h0Zm-13.8,75.66c-.51,9.79-.63,18.85-1.36,28.67,3.89.35,8.27.69,12.42.09l-1.24-27.36-.22-1.3c-3.16.12-6.15.25-9.6-.09Zm-15.48-30.25c-3.13.17-5.98,1.53-8.8,2.76-4.79,2.39-11.83,6.01-11.05,12.55,1.03,3.57,4.91,5.88,7.98,7.35,16.98,7.45,39.52,7.71,57.45,2.14,4.43-1.7,10.37-4.17,11.18-9.57-.05-4.47-4.79-7.28-8.2-8.99v-.21c1.19-.47,2.55-.89,3.79-1.02v-.12c-6.01-1.07-11.8-2.64-17.62-4.17,1.12,2.54,1.93,5.23,2.86,7.87,1.75-.56,3.54-.98,5.43-1.23,3.07,1.19,7.46,2.89,7.89,6.71.34,3.57-3.58,5.32-6.06,6.77-13.15,4.77-27.94,5.23-41.66,1.61-3.79-1.19-9.26-2.72-9.73-7.52,2.69-6.33,9.65-7.65,15.45-9.18-.66-.43-1.33-.84-2-1.25l-2-1.23c-1.66-1.03-3.31-2.08-4.92-3.26Zm20.48-35.43h-.22l-1.7,5.44-8.54,24.37c2.14.22,4.78,0,6.89.22v.2l-1.25,27.57.22.29c2.73.27,6.14.4,8.92-.07v-.43l-1.11-26.74.17-.9,7.51-.13c-3.75-9.86-7.38-19.83-10.88-29.82Z"/>
      </g>
    </mask>
    <mask id="mask-5" x="117.49" y="163.56" width="15" height="15" maskUnits="userSpaceOnUse">
      <g id="mask-12">
        <path id="path-11" class="cls-3" d="m125,164.56c3.42,0,6.49,2.39,6.49,6.49s-3.07,6.51-6.49,6.51-6.51-2.4-6.51-6.51,3.06-6.49,6.51-6.49Zm-.01,2c-2.49,0-4.5,1.99-4.5,4.99s2.01,5.01,4.5,4.99v.02c2.43,0,4.5-2.01,4.5-5.01s-2.07-4.99-4.5-4.99Zm.3,1c1.94,0,3.07.51,3.07,2.11,0,1.28-.8,1.74-1.81,1.82l1.93,3.07h-1.91l-1.72-2.94h-.76v2.94h-1.6v-7h2.8Zm.08,1.24h-.88v1.52h1.11c.56,0,.89-.12.89-.82,0-.66-.65-.71-1.12-.71Z"/>
      </g>
    </mask>
    <mask id="mask-6-2" data-name="mask-6" x="818.94" y="2.86" width="187.98" height="185" maskUnits="userSpaceOnUse">
      <g id="mask-14">
        <path id="path-13" class="cls-3" d="m912.94,3.86c51.36,0,92.98,41,92.98,91.48s-41.62,91.52-92.98,91.52-93-40.96-93-91.52S861.58,3.86,912.94,3.86Z"/>
      </g>
    </mask>
    <mask id="mask-7" x="939.02" y="37.17" width="25.09" height="44.28" maskUnits="userSpaceOnUse">
      <g id="mask-16">
        <path id="path-15" class="cls-3" d="m954.97,38.17c5.79,7.31,8.14,13.46,6.92,22.62-1.73,13.58-15.29,15.38-17.45,19.66-4.42-13.19-.45-13.91,7.26-24.05l.27-.35c2.68-3.55,4.75-7.79,3.01-17.88Z"/>
      </g>
    </mask>
    <mask id="mask-8-2" data-name="mask-8" x="855.24" y="64.09" width="25.7" height="62.8" maskUnits="userSpaceOnUse">
      <g id="mask-18">
        <path id="path-17" class="cls-3" d="m857.55,65.09l.06.02c1.26.34,22.23,6.3,19,31.03-2.34,18.07,1.49,29.76,1.49,29.76,0,0-21.87-13.73-16.96-30.38,5.77-19.5-3.6-30.42-3.6-30.42Z"/>
      </g>
    </mask>
    <mask id="mask-9" x="868.01" y="130.6" width="89.86" height="23.9" maskUnits="userSpaceOnUse">
      <g id="mask-20">
        <path id="path-19" class="cls-3" d="m956.87,131.6c-6.65,12.99-28.14,21.9-43.94,21.9s-37.27-8.91-43.92-21.84l87.86-.07Z"/>
      </g>
    </mask>
    <mask id="mask-10-2" data-name="mask-10" x="886.22" y="14.74" width="43.39" height="106.48" maskUnits="userSpaceOnUse">
      <g id="mask-22">
        <path id="path-21" class="cls-3" d="m923.4,15.74c-7.44,11.61-8.49,14.55-9.26,23.5-.66,7.7,1.6,19.97,4.32,32l.35,1.53c1.17,5.11,2.41,10.13,3.52,14.7,6.29,25.77-19.41,32.75-19.41,32.75,9.28-9.05,5.1-23.32.57-36.57l-.32-.93c-.05-.16-.11-.31-.16-.47l-.32-.93c-.53-1.54-1.06-3.07-1.56-4.56-13.91-41.59,22.27-61.02,22.27-61.02Z"/>
      </g>
    </mask>
    <mask id="mask-11" x="934.28" y="81.14" width="29.62" height="47.47" maskUnits="userSpaceOnUse">
      <g id="mask-24">
        <path id="path-23" class="cls-3" d="m944.89,82.21c16.67-.06,18.01,17.37,12.51,24.75-9.24,12.25-2.61,19.72-1.78,20.58l.07.07s0,0,0,0c0,0-20.42-8.38-12.18-21.04,8.25-12.64,1.38-24.37,1.38-24.37Z"/>
      </g>
    </mask>
    <mask id="mask-12-2" data-name="mask-12" x="860.28" y="27.8" width="44.74" height="103.42" maskUnits="userSpaceOnUse">
      <g id="mask-26">
        <path id="path-25" class="cls-3" d="m893.53,28.8c-10.76,20.51-.76,39.91,1.83,45.58,8.66,18.73,5.46,30.76.28,38.04,2.34,8.29.41,14.22-5.84,17.79v-.2c2.24-3.19,2.69-7.4,1.34-12.65-3.79,3.31-7.28,4.66-7.28,4.66,8.6-11.97,4.02-22.18-1.75-33.75l-.39-.78c-.59-1.18-1.19-2.37-1.78-3.58-18.66-38.01,13.59-55.12,13.59-55.12Z"/>
      </g>
    </mask>
    <mask id="mask-13" x="910.69" y="29.29" width="39.5" height="99.36" maskUnits="userSpaceOnUse">
      <g id="mask-28">
        <path id="path-27" class="cls-3" d="m944.7,30.29c-6.33,7.43-6.68,33.73-2.71,52.13,7.21,33.48-30.29,45.23-30.29,45.23,8.22-6.31,21.8-15.46,13.47-50.68-8.01-33.65,14.22-44.54,18.75-46.38l.27-.11c.33-.13.51-.19.51-.19Z"/>
      </g>
    </mask>
    <mask id="mask-14-2" data-name="mask-14" x="901.29" y="156.53" width="23.32" height="27.95" maskUnits="userSpaceOnUse">
      <g id="mask-30">
        <path id="path-29" class="cls-3" d="m923.61,157.53l-2.53,25.54c-2.65.24-5.4.4-8.14.4s-5.46-.17-8.14-.4l-2.51-25.54h21.32Z"/>
      </g>
    </mask>
    <mask id="mask-15" x="894.03" y="135.49" width="8.9" height="12.27" maskUnits="userSpaceOnUse">
      <g id="mask-32">
        <path id="path-31" class="cls-3" d="m899.79,136.49v8.87h2.15v1.4h-6.54v-1.4h2.22v-7.03c-.06,0-.23.01-.46.03-.2.05-.46.09-.74.11-.24.05-.51.06-.73.09-.24.02-.37.05-.42.05l-.24-1.15,2.79-.97h1.97Z"/>
      </g>
    </mask>
    <mask id="mask-16-2" data-name="mask-16" x="902.49" y="134.56" width="10" height="13" maskUnits="userSpaceOnUse">
      <g id="mask-34">
        <path id="path-33" class="cls-3" d="m907.62,135.56c.4,0,.8.04,1.24.14.44.1.81.27,1.16.5.36.22.62.47.84.83.23.36.35.8.35,1.3,0,.37-.08.76-.31,1.17-.18.43-.53.87-1.12,1.29.51.28.9.63,1.22,1.07.33.47.51.99.51,1.61,0,.46-.1.87-.29,1.22-.19.38-.45.71-.8.98-.35.25-.8.5-1.29.62-.5.18-1.08.27-1.66.27-1.28,0-2.25-.31-2.94-.83-.71-.53-1.03-1.26-1.03-2.13,0-.25.02-.5.07-.76.05-.27.16-.54.29-.82.15-.28.33-.55.57-.8.21-.26.52-.5.89-.69-.43-.29-.8-.61-1-.88-.23-.34-.32-.77-.32-1.26,0-.42.09-.77.27-1.12.18-.35.43-.68.74-.93.33-.24.71-.4,1.13-.58.45-.16.91-.2,1.47-.2Zm-.86,6.04c-.47.37-.84.74-1.06,1.15-.13.36-.2.76-.2,1.14,0,.45.1.82.44,1.16.35.32.83.48,1.53.48.32,0,.59-.04.86-.12.25-.1.45-.21.65-.4.16-.11.29-.32.38-.54.11-.23.14-.43.14-.64,0-.25-.06-.45-.2-.67-.09-.16-.25-.37-.49-.54-.19-.17-.47-.33-.81-.5-.32-.14-.76-.32-1.23-.5Zm.65-4.65c-.28,0-.56.02-.8.14-.17.1-.32.24-.47.38-.13.12-.22.28-.31.45-.05.14-.06.3-.06.42,0,.25.01.42.16.61.13.17.27.32.46.46.19.12.45.28.73.38.28.14.55.27.86.4.48-.36.78-.66.96-.91.17-.32.26-.59.26-.88,0-.16-.06-.33-.11-.48-.08-.2-.15-.35-.34-.48-.13-.14-.3-.27-.53-.38-.24-.09-.51-.11-.83-.11Z"/>
      </g>
    </mask>
    <mask id="mask-17" x="912.49" y="134.56" width="10" height="13" maskUnits="userSpaceOnUse">
      <g id="mask-36">
        <path id="path-35" class="cls-3" d="m917.62,135.56c.4,0,.82.04,1.21.14.45.1.81.27,1.18.5.36.22.66.47.86.83.21.36.34.8.34,1.3,0,.37-.11.76-.28,1.17-.21.43-.59.87-1.17,1.29.53.28.92.63,1.26,1.07.33.47.48.99.48,1.61,0,.46-.1.87-.27,1.22-.21.38-.48.71-.84.98-.35.25-.76.5-1.27.62-.51.18-1.04.27-1.68.27-1.23,0-2.21-.31-2.91-.83-.69-.53-1.02-1.26-1.02-2.13,0-.25,0-.5.07-.76.04-.27.13-.54.31-.82.13-.28.31-.55.55-.8.24-.26.53-.5.88-.69-.43-.29-.79-.61-.96-.88-.24-.34-.34-.77-.34-1.26,0-.42.08-.77.26-1.12.17-.35.44-.68.73-.93.33-.24.75-.4,1.19-.58.41-.16.89-.2,1.44-.2Zm-.8,6.04c-.54.37-.93.74-1.09,1.15-.17.36-.24.76-.24,1.14,0,.45.16.82.48,1.16.36.32.85.48,1.53.48.3,0,.6-.04.83-.12.26-.1.49-.21.63-.4.2-.11.31-.32.4-.54.1-.23.12-.43.12-.64,0-.25-.02-.45-.16-.67-.08-.16-.26-.37-.47-.54-.24-.17-.52-.33-.84-.5-.36-.14-.77-.32-1.2-.5Zm.64-4.65c-.34,0-.58.02-.77.14-.23.1-.41.24-.5.38-.14.12-.24.28-.29.45-.06.14-.14.3-.14.42,0,.25.1.42.21.61.11.17.26.32.48.46.2.12.44.28.7.38.28.14.56.27.88.4.45-.36.76-.66.93-.91.18-.32.27-.59.27-.88,0-.16-.04-.33-.08-.48-.06-.2-.18-.35-.34-.48-.11-.14-.33-.27-.55-.38-.2-.09-.51-.11-.79-.11Z"/>
      </g>
    </mask>
    <mask id="mask-18-2" data-name="mask-18" x="921.74" y="135.49" width="9.68" height="12.43" maskUnits="userSpaceOnUse">
      <g id="mask-38">
        <path id="path-37" class="cls-3" d="m929.91,136.49v2.48h-1.67v-1.03h-2.82l-.19,2.41c.19-.02.39-.08.62-.15.18-.03.5-.07.83-.07.5,0,1.03.07,1.45.2.49.14.83.37,1.18.63.31.26.64.6.83,1.01.18.4.3.88.3,1.42,0,.59-.13,1.11-.33,1.54-.23.44-.54.81-.9,1.1-.38.3-.87.51-1.34.65-.5.14-1.05.23-1.59.23-.26,0-.49,0-.81-.04-.29-.04-.59-.06-.9-.12-.31-.05-.67-.13-.94-.2-.31-.09-.6-.21-.86-.36l.51-1.43c.59.16,1.06.3,1.5.34.41.07.76.12,1.12.12.67,0,1.29-.14,1.71-.44.45-.29.61-.77.61-1.4,0-.3-.01-.55-.14-.8-.13-.2-.29-.39-.48-.54-.19-.15-.41-.27-.72-.36-.25-.04-.5-.07-.84-.07-.51,0-1.05.11-1.62.35l-1.09-.58.39-4.92h6.21Z"/>
      </g>
    </mask>
  </defs>
  <g id="Group-3">
    <g class="cls-26">
      <polygon id="Fill-1" class="cls-4" points="209.91 24.44 250.34 24.44 250.34 165.19 209.91 165.19 209.91 24.44"/>
    </g>
  </g>
  <g id="Group-6">
    <g class="cls-25">
      <polygon id="Fill-4" class="cls-4" points="268.51 24.44 376.2 24.44 376.2 165.18 268.51 165.18 268.51 24.44"/>
    </g>
  </g>
  <g id="Group-9">
    <g class="cls-19">
      <polygon id="Fill-7" class="cls-4" points="395.73 24.44 503.39 24.44 503.39 165.18 395.73 165.18 395.73 24.44"/>
    </g>
  </g>
  <g id="Group-12">
    <g class="cls-11">
      <polygon id="Fill-10" class="cls-4" points="522.49 24.56 630.49 24.56 630.49 165.56 522.49 165.56 522.49 24.56"/>
    </g>
  </g>
  <g id="Group-15">
    <g class="cls-24">
      <polygon id="Fill-13" class="cls-4" points="0 0 188.49 0 188.49 185.98 0 185.98 0 0"/>
    </g>
  </g>
  <g id="Group-18">
    <g class="cls-15">
      <polygon id="Fill-16" class="cls-4" points="117.49 163.56 132.49 163.56 132.49 178.56 117.49 178.56 117.49 163.56"/>
    </g>
  </g>
  <line id="Stroke-186" class="cls-22" x1="725.99" y1="5.06" x2="725.99" y2="185.06"/>
  <g id="IŞIK-UNIVERSITY" class="cls-8">
    <g class="cls-8">
      <path class="cls-6" d="m1047.35,43.81v48.75h-10.73v-48.75h10.73Z"/>
    </g>
    <g class="cls-8">
      <path class="cls-6" d="m1054.89,77.42l9.14-.89c.55,3.07,1.67,5.32,3.35,6.76,1.68,1.44,3.95,2.16,6.81,2.16,3.03,0,5.3-.64,6.84-1.92,1.53-1.28,2.3-2.78,2.3-4.49,0-1.1-.32-2.04-.97-2.81-.65-.77-1.77-1.44-3.38-2.02-1.1-.38-3.61-1.06-7.52-2.03-5.04-1.25-8.57-2.78-10.6-4.6-2.86-2.56-4.29-5.68-4.29-9.36,0-2.37.67-4.59,2.02-6.65,1.34-2.06,3.28-3.63,5.81-4.71,2.53-1.08,5.58-1.62,9.16-1.62,5.84,0,10.24,1.28,13.19,3.84,2.95,2.56,4.5,5.98,4.65,10.25l-9.39.41c-.4-2.39-1.26-4.11-2.59-5.16-1.32-1.05-3.31-1.57-5.95-1.57s-4.87.56-6.41,1.68c-.99.72-1.49,1.68-1.49,2.89,0,1.1.46,2.04,1.4,2.83,1.18.99,4.06,2.03,8.63,3.11,4.57,1.08,7.95,2.2,10.14,3.35,2.19,1.15,3.9,2.73,5.14,4.73,1.24,2,1.86,4.47,1.86,7.41,0,2.67-.74,5.16-2.22,7.49-1.48,2.33-3.58,4.06-6.28,5.19-2.71,1.13-6.08,1.7-10.12,1.7-5.88,0-10.4-1.36-13.55-4.08-3.15-2.72-5.04-6.68-5.65-11.89Zm10.7,27.93v-3.75c2.18.23,4.18.35,6,.35s3.28-.34,4.19-1.02c.7-.51,1.05-1.16,1.05-1.97,0-.72-.33-1.34-.98-1.87-.66-.53-1.67-.79-3.05-.79s-2.74.21-4.16.63l.83-3.14c1.65-.57,3.43-.86,5.33-.86,2.64,0,4.66.58,6.03,1.75,1.38,1.16,2.06,2.58,2.06,4.25,0,1.86-.76,3.38-2.29,4.54-2.05,1.59-4.99,2.38-8.82,2.38-2.73,0-4.79-.17-6.19-.51Z"/>
      <path class="cls-6" d="m1111.76,43.81v48.75h-10.73v-48.75h10.73Z"/>
      <path class="cls-6" d="m1122.09,92.56v-48.75h10.73v18.92l15.21-18.92h13.07l-17.1,21.71,18.98,27.04h-13.52l-12.61-18.14-4.03,5v13.13h-10.73Z"/>
    </g>
    <g class="cls-8">
      <path class="cls-6" d="m1216.2,43.81h10.73v31.14c0,12.35-10.46,18.46-19.5,18.46s-19.57-6.11-19.57-18.46v-31.14h10.73v29.25c0,5.53,3.77,8.97,8.84,8.97s8.71-3.45,8.78-8.97v-29.25Z"/>
      <path class="cls-6" d="m1236.54,92.56v-49.73l29.64,26.85v-25.81h10.72v49.66l-29.64-26.39v25.42h-10.73Z"/>
      <path class="cls-6" d="m1297.9,43.81v48.75h-10.73v-48.75h10.73Z"/>
      <path class="cls-6" d="m1303.29,43.81h11.64l10.72,24.9,10.73-24.9h11.64l-22.36,49.79-22.36-49.79Z"/>
      <path class="cls-6" d="m1386.37,54.41h-22.36v9.75h18.4v10.47h-18.4v7.34h22.75v10.6h-33.48v-48.75h33.09v10.6Z"/>
      <path class="cls-6" d="m1396.18,43.88h16.97c10.47,0,18.79,7.8,18.79,18.66,0,6.5-3.12,12.29-8,15.8,1.04,1.69,2.6,4.42,8.65,14.24h-12.16l-6.63-10.73h-6.89v10.73h-10.73v-48.69Zm16.71,27.37c4.55,0,8.32-3.71,8.32-8.39s-3.71-8.39-8.32-8.39h-5.98v16.77h5.98Z"/>
      <path class="cls-6" d="m1449.67,56.88c0,1.69.78,2.92,6.7,5.14,7.87,2.86,15.8,7.54,15.8,16.45,0,7.74-6.31,15.02-15.93,15.02-8,0-13.85-3.45-18.66-10.99l7.74-5.98c2.21,3.25,6.5,6.57,10.92,6.37,2.86-.13,4.75-1.95,4.68-3.9-.06-2.14-3.9-4.88-9.42-6.96-7.28-2.79-12.55-6.83-12.55-15.15,0-6.37,5.53-13.52,14.89-13.52,5.2,0,10.92.33,17.62,8.06l-8.32,6.17c-3.64-3.58-6.63-3.9-9.29-3.9-2.21,0-4.16,1.62-4.16,3.18Z"/>
      <path class="cls-6" d="m1491.08,43.81v48.75h-10.73v-48.75h10.73Z"/>
      <path class="cls-6" d="m1512.27,92.56v-38.16h-13.26v-10.6h37.38v10.6h-13.39v38.16h-10.73Z"/>
      <path class="cls-6" d="m1556.92,92.56v-16.19l-16.71-32.57h11.9l10.14,20.02,10.46-20.02h11.83l-16.9,32.57v16.19h-10.73Z"/>
    </g>
  </g>
  <g id="IEEE-STUDENT-BRANCH" class="cls-8">
    <text class="cls-9" transform="translate(1033.49 156.64)"><tspan x="0" y="0">IEEE STUDEN</tspan><tspan class="cls-23" x="300.06" y="0">T</tspan><tspan x="326.73" y="0" xml:space="preserve"> BRANCH</tspan></text>
  </g>
  <g id="Group-11">
    <g class="cls-7">
      <polygon id="Fill-9" class="cls-2" points="818.94 2.86 1006.92 2.86 1006.92 187.86 818.94 187.86 818.94 2.86"/>
    </g>
  </g>
  <g id="Group-14">
    <g class="cls-27">
      <polygon id="Fill-12" class="cls-1" points="939.02 37.17 964.11 37.17 964.11 81.45 939.02 81.45 939.02 37.17"/>
    </g>
  </g>
  <g id="Group-17">
    <g class="cls-17">
      <polygon id="Fill-15" class="cls-1" points="855.24 64.09 880.94 64.09 880.94 126.89 855.24 126.89 855.24 64.09"/>
    </g>
  </g>
  <g id="Group-20">
    <g class="cls-13">
      <polygon id="Fill-18" class="cls-1" points="868.01 130.6 957.87 130.6 957.87 154.5 868.01 154.5 868.01 130.6"/>
    </g>
  </g>
  <g id="Group-23">
    <g class="cls-12">
      <polygon id="Fill-21" class="cls-1" points="886.22 14.74 929.61 14.74 929.61 121.22 886.22 121.22 886.22 14.74"/>
    </g>
  </g>
  <g id="Group-26">
    <g class="cls-28">
      <polygon id="Fill-24" class="cls-1" points="934.28 81.14 963.9 81.14 963.9 128.62 934.28 128.62 934.28 81.14"/>
    </g>
  </g>
  <g id="Group-29">
    <g class="cls-16">
      <polygon id="Fill-27" class="cls-1" points="860.28 27.8 905.02 27.8 905.02 131.21 860.28 131.21 860.28 27.8"/>
    </g>
  </g>
  <g id="Group-32">
    <g class="cls-10">
      <polygon id="Fill-30" class="cls-1" points="910.69 29.29 950.2 29.29 950.2 128.66 910.69 128.66 910.69 29.29"/>
    </g>
  </g>
  <g id="Group-35">
    <g class="cls-20">
      <polygon id="Fill-33" class="cls-1" points="901.29 156.53 924.61 156.53 924.61 184.48 901.29 184.48 901.29 156.53"/>
    </g>
  </g>
  <g id="Group-38">
    <g class="cls-18">
      <polygon id="Fill-36" class="cls-2" points="894.03 135.49 902.94 135.49 902.94 147.76 894.03 147.76 894.03 135.49"/>
    </g>
  </g>
  <g id="Group-41">
    <g class="cls-14">
      <polygon id="Fill-39" class="cls-2" points="902.49 134.56 912.49 134.56 912.49 147.56 902.49 147.56 902.49 134.56"/>
    </g>
  </g>
  <g id="Group-44">
    <g class="cls-5">
      <polygon id="Fill-42" class="cls-2" points="912.49 134.56 922.49 134.56 922.49 147.56 912.49 147.56 912.49 134.56"/>
    </g>
  </g>
  <g id="Group-47">
    <g class="cls-21">
      <polygon id="Fill-45" class="cls-2" points="921.74 135.49 931.42 135.49 931.42 147.92 921.74 147.92 921.74 135.49"/>
    </g>
  </g>
</svg>