<?xml version="1.0" encoding="UTF-8"?>
<svg width="1826px" height="236px" viewBox="0 0 1826 236" version="1.1" xmlns="http://www.w3.org/2000/svg" xmlns:xlink="http://www.w3.org/1999/xlink">
    <title>Işık IEEE Logo Beyaz</title>
    <defs>
        <polygon id="path-1" points="0 0 38.4329 0 38.4329 138.7447 0 138.7447"></polygon>
        <polygon id="path-3" points="105.6861 0 105.6861 26.8978 38.4285 26.8978 38.4285 55.5291 100.3008 55.5291 100.3008 82.4335 38.4285 82.4335 38.4285 111.82941 105.6861 111.82941 105.6861 138.74255 0 138.74255 0 0"></polygon>
        <polygon id="path-5" points="105.6597 0 105.6597 26.8978 38.4197 26.8978 38.4197 55.5291 100.2722 55.5291 100.2722 82.4335 38.4197 82.4335 38.4197 111.82941 105.6597 111.82941 105.6597 138.74255 0 138.74255 0 0"></polygon>
        <polygon id="path-7" points="106 0 106 26.9477 38.5683 26.9477 38.5683 55.6321 100.6055 55.6321 100.6055 82.5864 38.5683 82.5864 38.5683 112.03691 106 112.03691 106 139 0 139 0 0"></polygon>
        <path d="M88.6957993,1.77610573 C90.3675993,0.509305732 92.5811993,-0.559994268 94.6317993,0.324805732 C95.5722993,0.577305732 96.6383993,1.43360573 97.4907993,1.95400573 L104.442199,11.7749057 C110.166699,19.0050057 116.181999,26.5798057 122.371299,33.4235057 L137.652999,49.3328057 C151.478699,63.0377057 166.154599,75.1157057 181.905399,85.7973057 L182.407599,85.8785057 C184.420699,87.1564057 185.781899,89.4552057 186,91.7913057 C185.948492,94.906998 183.713258,96.4903259 181.286952,97.8828597 L180.830266,98.1420514 L180.143227,98.5267534 C179.000711,99.1669084 177.884622,99.8112 177.000199,100.597806 C146.392899,122.716296 118.996999,150.110786 97.3938993,180.614246 L95.6537993,182.355356 C93.9071993,183.415826 91.6406993,182.987686 89.8080993,182.355356 C88.3339474,181.87566 87.6848925,180.681357 87.0330406,179.472837 L86.801511,179.046851 C86.4890551,178.481123 86.1544104,177.930495 85.7112993,177.467956 C80.9360493,170.070976 74.8304393,163.126296 69.6323093,156.234316 C66.5486693,153.134126 63.9936593,149.847316 60.8373393,146.545136 C43.0733793,127.138236 23.1112293,110.122346 2.23278926,95.7851057 C0.752649256,94.3074057 -0.491820744,92.3424057 0.193189256,89.9623057 C0.829739256,87.3167057 3.89575926,85.7512057 5.95738926,84.1462057 C32.0295493,66.3092057 55.9255393,43.0336057 76.1123593,18.1158057 L88.6957993,1.77610573 Z M105.475199,29.3441057 C100.307899,24.9638057 92.5811993,21.0052057 86.4402993,25.7718057 C80.5461893,29.9874057 74.9581893,34.2798057 69.3349593,39.1255057 C68.8613993,39.4284057 68.3019393,40.0630057 68.0001893,40.3638057 C54.9035293,52.0180057 41.9346293,64.7766057 31.3445393,78.2247057 C31.2378707,78.3630272 31.1309858,78.501231 31.0239835,78.6393585 L30.0604638,79.8815617 C27.4968713,83.1945588 25.0366093,86.5349914 24.0473293,90.4739057 C24.0098893,92.9374057 24.3865293,95.2384057 25.7168993,97.1090057 C34.6770693,110.416556 46.5424693,123.137856 58.3660193,134.067546 C59.6088754,135.173914 60.8462283,136.293376 62.082061,137.417307 L63.5645854,138.767617 C71.9643107,146.425271 80.3674046,154.130022 90.0261993,159.169826 C93.8608993,160.961436 98.1779993,158.877816 101.378399,156.620736 C117.201799,145.524186 131.333699,131.612866 144.732099,117.236086 C145.73684,116.006313 146.764866,114.793862 147.797073,113.588406 L148.829966,112.384898 C153.822176,106.575518 158.76328,100.849119 161.496099,94.0396057 C162.443199,90.6013057 160.945399,87.6658057 159.249399,85.0749057 C148.795899,70.1844057 136.071499,56.1018057 122.371299,43.4310057 L121.472699,42.9173057 C116.523399,38.1396057 110.889199,33.4696057 105.475199,29.3441057 Z M101.684163,31.789737 L102.144731,32.1339176 C103.291353,32.9969065 104.401927,33.8728293 105.475199,34.6245057 C124.289799,49.7192057 142.042699,66.9986057 155.568899,86.5087057 C157.275899,89.0270057 158.046799,92.9374057 156.518199,95.7851057 C153.009499,101.618806 148.278299,106.938706 143.793799,112.342096 L143.793799,112.638506 C132.608999,124.507906 120.796499,136.708856 108.030199,146.758106 C106.769589,147.523272 105.529903,148.47162 104.287794,149.455297 L103.849264,149.803704 C103.703028,149.920168 103.556721,150.03688 103.410304,150.153599 L102.75056,150.678076 C102.603729,150.794276 102.456731,150.910123 102.309529,151.025375 L101.86727,151.369108 C97.733077,154.556142 93.4086326,157.088402 88.0592993,153.680836 C69.7908993,140.371116 52.3066693,123.822886 37.4831793,106.075906 C34.9700193,102.176506 31.0471893,98.9797057 29.3005293,94.5533057 C27.5753624,90.3177937 29.7574861,86.9270291 32.2717949,83.7094003 L32.6416988,83.2396858 L33.0138556,82.7719754 C33.8208376,81.7604363 34.6261501,80.7597161 35.3158293,79.7484057 C50.4278493,61.1693057 69.1961993,42.9502057 88.6957993,29.5219057 C93.4071493,26.3224057 97.753043,28.8755932 101.684163,31.789737 L101.684163,31.789737 Z M87.8873993,107.445906 C87.3763993,117.236086 87.2530993,126.295126 86.5283993,136.111646 C90.4137993,136.462946 94.8013993,136.801066 98.9444993,136.199476 L97.7065993,108.840116 L97.4907993,107.538126 C94.3322993,107.661076 91.3454993,107.786226 87.8873993,107.445906 Z M72.4075893,77.1971057 C69.2820993,77.3684057 66.4275293,78.7319057 63.6104093,79.9548057 C58.8241593,82.3480057 51.7802493,85.9620057 52.5555593,92.5092057 C53.5819793,96.0815057 57.4629493,98.3913057 60.5355793,99.8623057 C77.5154093,107.316366 100.056799,107.573256 117.983799,102.005206 C122.410999,100.305806 128.349199,97.8380057 129.164099,92.4346057 C129.115699,87.9687057 124.373499,85.1562057 120.966099,83.4480057 L120.966099,83.2372057 C122.155499,82.7674057 123.521099,82.3480057 124.752299,82.2185057 L124.752299,82.0977057 C118.745899,81.0263057 112.950799,79.4608057 107.133799,77.9261057 C108.252699,80.4708057 109.060999,83.1538057 109.994899,85.7973057 C111.741599,85.2418057 113.534499,84.8181057 115.419899,84.5634057 C118.488199,85.7512057 122.877899,87.4528057 123.311799,91.2775057 C123.653199,94.8498057 119.730399,96.5931057 117.250299,98.0443057 C104.102999,102.813206 89.3080993,103.276506 75.5947493,99.6515057 C71.8062793,98.4615057 66.3394293,96.9356057 65.8680693,92.1272057 C68.5574393,85.7973057 75.5132493,84.4799057 81.3192993,82.9430057 C80.6560726,82.5170724 79.9903442,82.1019786 79.3242411,81.690544 L77.3269351,80.4600378 C75.665122,79.4317971 74.0142615,78.3815502 72.4075893,77.1971057 Z M92.8828993,41.7668057 L92.6626993,41.7668057 L90.9600993,47.2118057 L82.4227993,71.5852057 C84.5614993,71.8026057 87.2067993,71.5852057 89.3080993,71.8026057 L89.3080993,72.0024057 L88.0592993,99.5703057 L88.2750993,99.8623057 C91.0040993,100.128006 94.4136993,100.264106 97.1955993,99.7899057 L97.1955993,99.3551057 L96.0832993,72.6171057 L96.2506993,71.7125057 L103.761599,71.5852057 C100.014999,61.7204057 96.3806993,51.7545057 92.8828993,41.7668057 Z" id="path-9"></path>
        <path d="M6.5077,0 C9.9317,0 13,2.39142 13,6.49225 C13,10.59973 9.9317,13 6.5077,13 C3.0639,13 0,10.59973 0,6.49225 C0,2.39142 3.0639,0 6.5077,0 Z M6.4968,2 C4.0076,2 2,3.99201 2,6.98669 C2,9.99246 4.0076,12 6.4968,11.97782 L6.4968,12 C8.9282,12 11,9.99246 11,6.98669 C11,3.99201 8.9282,2 6.4968,2 Z M6.7995,3 C8.7402,3 9.8743,3.50522 9.8743,5.10953 C9.8743,6.39253 9.0771,6.85122 8.0664,6.92877 L10,10 L8.0878,10 L6.363,7.05508 L5.6038,7.05508 L5.6038,10 L4,10 L4,3 L6.7995,3 Z M6.8772,4.238 L6,4.238 L6,5.762 L7.1099,5.762 C7.6694,5.762 8,5.638 8,4.944 C8,4.288 7.3536,4.238 6.8772,4.238 Z" id="path-11"></path>
        <path d="M92.9982,0 C144.3604,0 185.9786,40.9997 185.9786,91.4807 C185.9786,142.04254 144.3604,183.00004 92.9982,183.00004 C41.6468,183.00004 0,142.04254 0,91.4807 C0,40.9997 41.6468,0 92.9982,0 Z" id="path-13"></path>
        <path d="M12.3723907,0 C18.1614907,7.3071 20.5107907,13.4567 19.2949907,22.6213 C17.5607907,36.2046 4.00869067,38.0059 1.84179067,42.2768 C-2.57790933,29.0911 1.39479067,28.3698 9.09699067,18.2307 L9.36225712,17.8830971 C12.0404548,14.3286602 14.1138923,10.0931762 12.3723907,0 Z" id="path-15"></path>
        <path d="M0,0 L0.0591483303,0.0153683892 C1.32012603,0.35083284 22.288035,6.312868 19.0623,31.0436 C16.7202,49.11596 20.557,60.79951 20.557,60.79951 C20.557,60.79951 -1.3123,47.07196 3.5972,30.4209 C9.3685,10.9202 0,0 0,0 Z" id="path-17"></path>
        <path d="M87.8599,0 C81.2054,12.98876 59.7151,21.90357 43.9246,21.90357 C28.1877,21.90357 6.6545,12.98876 0,0.06685 L87.8599,0 Z" id="path-19"></path>
        <path d="M25.4543194,0 C18.0096194,11.6096 16.9619194,14.5543 16.1896194,23.4972 C15.5246715,31.2015217 17.7846884,43.4714349 20.5060193,55.4992289 L20.8557394,57.0330062 C22.0285608,62.1387434 23.2659324,67.1635928 24.3780194,71.7371 C30.6642194,97.51059 4.97241937,104.48343 4.97241937,104.48343 C14.2516994,95.4375685 10.0736221,81.1682849 5.54361512,67.9086961 L5.22343612,66.9744833 C5.17003244,66.8190877 5.11662273,66.6638522 5.06322833,66.5087869 L4.74321637,65.5805186 C4.21073837,64.0370794 3.68405937,62.51269 3.18451937,61.0175 C-10.7286806,19.4303 25.4543194,0 25.4543194,0 Z" id="path-21"></path>
        <path d="M3.33496223,0 C20.0015622,-0.0630286442 21.3424622,17.3726014 15.8429622,24.7535314 C6.59966023,37.0026432 13.2297904,44.4769838 14.0586819,45.3298079 L14.1313136,45.4025665 C14.1376098,45.4086505 14.1408622,45.4117014 14.1408622,45.4117014 C14.1408622,45.4117014 -6.28023777,37.0281114 1.95826223,24.3735814 C10.2111622,11.7330714 3.33496223,0 3.33496223,0 Z" id="path-23"></path>
        <path d="M19.4013563,0 C8.64195625,20.5104 18.6397563,39.9055 21.2321563,45.5837 C29.8890563,64.314 26.6923563,76.33878 21.5146563,83.62473 C23.8532563,91.90981 21.9223563,97.84481 15.6754563,101.41918 L15.6754563,101.21865 C17.9174563,98.02423 18.3680563,93.82012 17.0163563,88.56411 C13.2296563,91.87814 9.73615625,93.22909 9.73615625,93.22909 C18.3381843,81.2589193 13.7557078,71.0499592 7.98250534,59.4771455 L7.59163289,58.6948542 C7.00302667,57.5182115 6.40500025,56.326904 5.80995625,55.1177 C-12.8483437,17.1119 19.4013563,0 19.4013563,0 Z" id="path-25"></path>
        <path d="M33.0077,0 C26.6751,7.4302 26.3247,33.7314 30.2938,52.131 C37.5025,85.61254 0,97.36293 0,97.36293 C8.217,91.05149 21.8049,81.90448 13.4698,46.6815 C5.46304,13.03347 27.694147,2.139879 32.220436,0.2976411 L32.4954331,0.188084275 C32.8257205,0.05948672 33.0077,0 33.0077,0 Z" id="path-27"></path>
        <path d="M21.3186,0 L18.787,25.54479 C16.1373,25.7805 13.3912,25.94585 10.645,25.94585 C7.9059,25.94585 5.1812,25.7805 2.5066,25.54479 L0,0 L21.3186,0 Z" id="path-29"></path>
        <path d="M4.7558,0 L4.7558,8.86908 L6.9012,8.86908 L6.9012,10.2728 L0.3647,10.2728 L0.3647,8.86908 L2.5889,8.86908 L2.5889,1.83996 C2.5245,1.83996 2.36,1.85403 2.1276,1.8681 C1.9309,1.92088 1.6663,1.95957 1.3874,1.98068 C1.1443,2.02642 0.8725,2.04049 0.6579,2.06863 C0.4184,2.08974 0.2861,2.12141 0.236,2.12141 L0,0.97451 L2.7855,0 L4.7558,0 Z" id="path-31"></path>
        <path d="M4.1243,0 C4.5241,0 4.9275,0.04384 5.3597,0.14248 C5.7992,0.24477 6.1702,0.41282 6.5196,0.63932 C6.8798,0.85487 7.1391,1.11059 7.3624,1.46862 C7.5894,1.82664 7.7082,2.26503 7.7082,2.76918 C7.7082,3.13816 7.6254,3.52541 7.3985,3.94188 C7.222,4.36931 6.8726,4.80771 6.2747,5.23148 C6.7897,5.50913 7.1715,5.85985 7.4921,6.29824 C7.8235,6.76586 8,7.28828 8,7.90568 C8,8.36234 7.9027,8.7715 7.7082,9.12953 C7.5209,9.50947 7.2616,9.83461 6.9086,10.1086 C6.5556,10.36068 6.109,10.6091 5.6227,10.726 C5.122,10.90867 4.5457,11 3.9622,11 C2.6871,11 1.7073,10.68947 1.0266,10.17071 C0.3134,9.64098 0,8.91033 0,8.0445 C0,7.79243 0.0216,7.54766 0.072,7.28828 C0.1189,7.01428 0.2305,6.74759 0.3638,6.46629 C0.5115,6.18499 0.6916,5.91465 0.9365,5.66988 C1.1454,5.41415 1.4552,5.17303 1.8298,4.97576 C1.3976,4.68349 1.0266,4.36931 0.8285,4.09166 C0.6015,3.75191 0.5115,3.32448 0.5115,2.83494 C0.5115,2.41116 0.5979,2.0641 0.7852,1.71704 C0.9653,1.36998 1.2103,1.04118 1.5236,0.78545 C1.855,0.54799 2.2296,0.38725 2.6583,0.20458 C3.1049,0.04384 3.5696,0 4.1243,0 Z M3.2642,6.036 C2.7936,6.404 2.4267,6.772 2.2034,7.188 C2.0718,7.548 2,7.952 2,8.324 C2,8.772 2.0997,9.14 2.4387,9.48 C2.7936,9.8 3.2642,9.964 3.9701,9.964 C4.2891,9.964 4.5643,9.92 4.8315,9.84 C5.0788,9.736 5.2822,9.628 5.4776,9.436 C5.6331,9.324 5.7687,9.116 5.8564,8.896 C5.9641,8.668 6,8.468 6,8.252 C6,8.004 5.9402,7.8 5.7966,7.584 C5.7049,7.42 5.5454,7.216 5.3021,7.044 C5.1107,6.872 4.8355,6.712 4.4925,6.54 C4.1775,6.404 3.7308,6.216 3.2642,6.036 Z M3.916,1.384 C3.636,1.384 3.352,1.404 3.12,1.52 C2.952,1.62 2.796,1.756 2.648,1.9 C2.516,2.024 2.424,2.176 2.34,2.352 C2.292,2.496 2.28,2.652 2.28,2.772 C2.28,3.024 2.292,3.192 2.44,3.384 C2.572,3.556 2.708,3.708 2.904,3.84 C3.092,3.956 3.352,4.12 3.636,4.216 C3.916,4.352 4.184,4.488 4.496,4.616 C4.972,4.26 5.272,3.956 5.46,3.708 C5.632,3.384 5.72,3.12 5.72,2.828 C5.72,2.672 5.66,2.496 5.608,2.348 C5.532,2.144 5.46,1.996 5.272,1.872 C5.144,1.736 4.972,1.604 4.744,1.492 C4.508,1.404 4.236,1.384 3.916,1.384 Z" id="path-33"></path>
        <path d="M4.1281,0 C4.5286,0 4.9436,0.04384 5.3369,0.14248 C5.7844,0.24477 6.1488,0.41282 6.5133,0.63932 C6.8778,0.85487 7.1737,1.11059 7.3757,1.46862 C7.5886,1.82664 7.7149,2.26503 7.7149,2.76918 C7.7149,3.13816 7.6031,3.52541 7.4299,3.94188 C7.2242,4.36931 6.8381,4.80771 6.2643,5.23148 C6.7948,5.50913 7.1881,5.85985 7.5237,6.29824 C7.8521,6.76586 8,7.28828 8,7.90568 C8,8.36234 7.9026,8.7715 7.733,9.12953 C7.5237,9.50947 7.253,9.83461 6.8886,10.1086 C6.5386,10.36068 6.1236,10.6091 5.6184,10.726 C5.1132,10.90867 4.5756,11 3.9369,11 C2.7028,11 1.7285,10.68947 1.0248,10.17071 C0.332,9.64098 0,8.91033 0,8.0445 C0,7.79243 0,7.54766 0.0722,7.28828 C0.1155,7.01428 0.2057,6.74759 0.3789,6.46629 C0.5052,6.18499 0.6892,5.91465 0.9274,5.66988 C1.1691,5.41415 1.4578,5.17303 1.8115,4.97576 C1.382,4.68349 1.0248,4.36931 0.848,4.09166 C0.6062,3.75191 0.5052,3.32448 0.5052,2.83494 C0.5052,2.41116 0.5882,2.0641 0.765,1.71704 C0.931,1.36998 1.2052,1.04118 1.4975,0.78545 C1.8259,0.54799 2.2481,0.38725 2.6847,0.20458 C3.0961,0.04384 3.576,0 4.1281,0 Z M3.332,6.036 C2.792,6.404 2.4,6.772 2.244,7.188 C2.076,7.548 2.008,7.952 2.008,8.324 C2.008,8.772 2.168,9.14 2.484,9.48 C2.84,9.8 3.332,9.964 4.016,9.964 C4.312,9.964 4.612,9.92 4.848,9.84 C5.112,9.736 5.34,9.628 5.476,9.436 C5.68,9.324 5.788,9.116 5.872,8.896 C5.972,8.668 5.992,8.468 5.992,8.252 C5.992,8.004 5.972,7.8 5.832,7.584 C5.756,7.42 5.576,7.216 5.364,7.044 C5.12,6.872 4.848,6.712 4.528,6.54 C4.172,6.404 3.76,6.216 3.332,6.036 Z M3.968,1.384 C3.624,1.384 3.388,1.404 3.196,1.52 C2.968,1.62 2.788,1.756 2.692,1.9 C2.548,2.024 2.448,2.176 2.4,2.352 C2.34,2.496 2.264,2.652 2.264,2.772 C2.264,3.024 2.36,3.192 2.472,3.384 C2.58,3.556 2.728,3.708 2.952,3.84 C3.156,3.956 3.388,4.12 3.656,4.216 C3.932,4.352 4.216,4.488 4.536,4.616 C4.984,4.26 5.292,3.956 5.468,3.708 C5.652,3.384 5.736,3.12 5.736,2.828 C5.736,2.672 5.696,2.496 5.652,2.348 C5.592,2.144 5.468,1.996 5.312,1.872 C5.204,1.736 4.984,1.604 4.76,1.492 C4.56,1.404 4.252,1.384 3.968,1.384 Z" id="path-35"></path>
        <path d="M7.1622,0 L7.1622,2.47673 L5.4923,2.47673 L5.4923,1.44593 L2.6675,1.44593 L2.4815,3.85933 C2.6675,3.83471 2.8677,3.77842 3.1001,3.70806 C3.2789,3.67991 3.6043,3.63418 3.9261,3.63418 C4.4232,3.63418 4.9524,3.70806 5.3743,3.83471 C5.8606,3.97895 6.2039,4.20059 6.5507,4.46796 C6.8583,4.73182 7.1908,5.06955 7.3767,5.47765 C7.5555,5.87871 7.6807,6.36069 7.6807,6.90247 C7.6807,7.49703 7.552,8.01419 7.3517,8.44691 C7.1193,8.88667 6.8082,9.25959 6.4506,9.55159 C6.0716,9.84711 5.5781,10.05819 5.1097,10.20243 C4.6091,10.34668 4.062,10.43111 3.5185,10.43111 C3.2575,10.43111 3.0286,10.43111 2.7068,10.39593 C2.4207,10.36075 2.1204,10.33964 1.8057,10.2728 C1.491,10.22002 1.137,10.14614 0.8617,10.07227 C0.5506,9.98431 0.2574,9.85766 0,9.7099 L0.5113,8.28156 C1.0977,8.43988 1.5733,8.58412 2.0131,8.62633 C2.4207,8.69318 2.7712,8.74243 3.1287,8.74243 C3.801,8.74243 4.4196,8.60171 4.8344,8.30267 C5.2813,8.01419 5.4494,7.53573 5.4494,6.90247 C5.4494,6.60344 5.4351,6.35014 5.31,6.10739 C5.1848,5.90334 5.0203,5.71688 4.8344,5.56912 C4.6449,5.42136 4.4196,5.29471 4.1157,5.2138 C3.8653,5.17158 3.6186,5.14343 3.2789,5.14343 C2.7712,5.14343 2.2277,5.24898 1.6555,5.49524 L0.5614,4.91828 L0.9547,0 L7.1622,0 Z" id="path-37"></path>
    </defs>
    <g id="Işık-IEEE-Logo-Beyaz" stroke="none" stroke-width="1" fill="none" fill-rule="evenodd">
        <g id="Group-3" transform="translate(340.4174, 47.8813)">
            <mask id="mask-2" fill="white">
                <use xlink:href="#path-1"></use>
            </mask>
            <g id="Clip-2"></g>
            <polygon id="Fill-1" fill="#FFFFFF" mask="url(#mask-2)" points="-1 -1.00004 39.4329 -1.00004 39.4329 139.7447 -1 139.7447"></polygon>
        </g>
        <g id="Group-6" transform="translate(399.0203, 47.8813)">
            <mask id="mask-4" fill="white">
                <use xlink:href="#path-3"></use>
            </mask>
            <g id="Clip-5"></g>
            <polygon id="Fill-4" fill="#FFFFFF" mask="url(#mask-4)" points="-1 -1 106.6861 -1 106.6861 139.74255 -1 139.74255"></polygon>
        </g>
        <g id="Group-9" transform="translate(526.2409, 47.8813)">
            <mask id="mask-6" fill="white">
                <use xlink:href="#path-5"></use>
            </mask>
            <g id="Clip-8"></g>
            <polygon id="Fill-7" fill="#FFFFFF" mask="url(#mask-6)" points="-1 -1 106.6597 -1 106.6597 139.74255 -1 139.74255"></polygon>
        </g>
        <g id="Group-12" transform="translate(653, 48)">
            <mask id="mask-8" fill="white">
                <use xlink:href="#path-7"></use>
            </mask>
            <g id="Clip-11"></g>
            <polygon id="Fill-10" fill="#FFFFFF" mask="url(#mask-8)" points="-1 -1 107 -1 107 140 -1 140"></polygon>
        </g>
        <g id="Group-15" transform="translate(131, 24)">
            <mask id="mask-10" fill="white">
                <use xlink:href="#path-9"></use>
            </mask>
            <g id="Clip-14"></g>
            <polygon id="Fill-13" fill="#FFFFFF" mask="url(#mask-10)" points="-1.49182074 -1.55999427 186.999999 -1.55999427 186.999999 184.415826 -1.49182074 184.415826"></polygon>
        </g>
        <g id="Group-18" transform="translate(248, 187)">
            <mask id="mask-12" fill="white">
                <use xlink:href="#path-11"></use>
            </mask>
            <g id="Clip-17"></g>
            <polygon id="Fill-16" fill="#FFFFFF" mask="url(#mask-12)" points="-1 -1 14 -1 14 14 -1 14"></polygon>
        </g>
        <g id="Group-190" transform="translate(855, 27.5)" stroke="#FFFFFF" stroke-linecap="square" stroke-width="2">
            <line x1="0.5" y1="0" x2="0.5" y2="180" id="Stroke-186"></line>
        </g>
        <g id="Group-11" transform="translate(949.445, 26.2978)">
            <mask id="mask-14" fill="white">
                <use xlink:href="#path-13"></use>
            </mask>
            <g id="Clip-10"></g>
            <polygon id="Fill-9" fill="#263179" mask="url(#mask-14)" points="-1 -1 186.9786 -1 186.9786 184.00004 -1 184.00004"></polygon>
        </g>
        <g id="Group-14" transform="translate(1072.1028, 60.6135)">
            <mask id="mask-16" fill="white">
                <use xlink:href="#path-15"></use>
            </mask>
            <g id="Clip-13"></g>
            <polygon id="Fill-12" fill="#FFFFFE" mask="url(#mask-16)" points="-3.57790933 -1 21.5107907 -1 21.5107907 43.2768 -3.57790933 43.2768"></polygon>
        </g>
        <g id="Group-17" transform="translate(987.0577, 87.5314)">
            <mask id="mask-18" fill="white">
                <use xlink:href="#path-17"></use>
            </mask>
            <g id="Clip-16"></g>
            <polygon id="Fill-15" fill="#FFFFFE" mask="url(#mask-18)" points="-2.3123 -1 23.3878 -1 23.3878 61.79951 -2.3123 61.79951"></polygon>
        </g>
        <g id="Group-20" transform="translate(998.5194, 154.0414)">
            <mask id="mask-20" fill="white">
                <use xlink:href="#path-19"></use>
            </mask>
            <g id="Clip-19"></g>
            <polygon id="Fill-18" fill="#FFFFFE" mask="url(#mask-20)" points="-1 -1 88.8599 -1 88.8599 22.90357 -1 22.90357"></polygon>
        </g>
        <g id="Group-23" transform="translate(1027.458, 38.1802)">
            <mask id="mask-22" fill="white">
                <use xlink:href="#path-21"></use>
            </mask>
            <g id="Clip-22"></g>
            <polygon id="Fill-21" fill="#FFFFFE" mask="url(#mask-22)" points="-11.7286806 -1 31.6642194 -1 31.6642194 105.48343 -11.7286806 105.48343"></polygon>
        </g>
        <g id="Group-26" transform="translate(1071.0669, 104.6455)">
            <mask id="mask-24" fill="white">
                <use xlink:href="#path-23"></use>
            </mask>
            <g id="Clip-25"></g>
            <polygon id="Fill-24" fill="#FFFFFE" mask="url(#mask-24)" points="-7.28023777 -1.06302864 22.3424622 -1.06302864 22.3424622 46.4117014 -7.28023777 46.4117014"></polygon>
        </g>
        <g id="Group-29" transform="translate(1003.6369, 51.2358)">
            <mask id="mask-26" fill="white">
                <use xlink:href="#path-25"></use>
            </mask>
            <g id="Clip-28"></g>
            <polygon id="Fill-27" fill="#FFFFFE" mask="url(#mask-26)" points="-13.8483437 -1 30.8890563 -1 30.8890563 102.41918 -13.8483437 102.41918"></polygon>
        </g>
        <g id="Group-32" transform="translate(1041.2025, 52.7337)">
            <mask id="mask-28" fill="white">
                <use xlink:href="#path-27"></use>
            </mask>
            <g id="Clip-31"></g>
            <polygon id="Fill-30" fill="#FFFFFE" mask="url(#mask-28)" points="-1 -1 38.5025 -1 38.5025 98.36293 -1 98.36293"></polygon>
        </g>
        <g id="Group-35" transform="translate(1031.7972, 179.9746)">
            <mask id="mask-30" fill="white">
                <use xlink:href="#path-29"></use>
            </mask>
            <g id="Clip-34"></g>
            <polygon id="Fill-33" fill="#FFFFFE" mask="url(#mask-30)" points="-1 -1 22.3186 -1 22.3186 26.94585 -1 26.94585"></polygon>
        </g>
        <g id="Group-38" transform="translate(1024.5423, 158.927)">
            <mask id="mask-32" fill="white">
                <use xlink:href="#path-31"></use>
            </mask>
            <g id="Clip-37"></g>
            <polygon id="Fill-36" fill="#263179" mask="url(#mask-32)" points="-1 -1 7.9012 -1 7.9012 11.2728 -1 11.2728"></polygon>
        </g>
        <g id="Group-41" transform="translate(1033, 158)">
            <mask id="mask-34" fill="white">
                <use xlink:href="#path-33"></use>
            </mask>
            <g id="Clip-40"></g>
            <polygon id="Fill-39" fill="#263179" mask="url(#mask-34)" points="-1 -1 9 -1 9 12 -1 12"></polygon>
        </g>
        <g id="Group-44" transform="translate(1043, 158)">
            <mask id="mask-36" fill="white">
                <use xlink:href="#path-35"></use>
            </mask>
            <g id="Clip-43"></g>
            <polygon id="Fill-42" fill="#263179" mask="url(#mask-36)" points="-1 -1 9 -1 9 12 -1 12"></polygon>
        </g>
        <g id="Group-47" transform="translate(1052.2523, 158.9284)">
            <mask id="mask-38" fill="white">
                <use xlink:href="#path-37"></use>
            </mask>
            <g id="Clip-46"></g>
            <polygon id="Fill-45" fill="#263179" mask="url(#mask-38)" points="-1 -1 8.6807 -1 8.6807 11.43111 -1 11.43111"></polygon>
        </g>
        <text id="IŞIK-UNIVERSITY" font-family="PontiacBlack, Pontiac" font-size="65" font-weight="bold" letter-spacing="-0.0065" fill="#FFFFFF">
            <tspan x="1161" y="115.003418">I</tspan>
            <tspan x="1182.0535" y="115.003418" letter-spacing="0.0195">ŞIK</tspan>
            <tspan x="1290.077" y="115.003418" letter-spacing="-0.013"> </tspan>
            <tspan x="1312.879" y="115.003418">UNIVERSITY</tspan>
        </text>
        <text id="IEEE-STUDENT-BRANCH" font-family="MusticaPro-Light, Mustica Pro" font-size="45" font-weight="300" letter-spacing="-0.018" fill="#FFFFFF">
            <tspan x="1163" y="179.080078">IEEE STUDENT BRANCH</tspan>
        </text>
    </g>
</svg>